<svg width="64" height="66" viewBox="0 0 64 66" fill="none" xmlns="http://www.w3.org/2000/svg">
<path d="M32.0053 1C26.1067 1 20.2 2.89334 15.2587 6.672C14.9943 6.8727 14.82 7.16968 14.7735 7.4983C14.7271 7.82691 14.8123 8.16058 15.0107 8.42667C15.1073 8.55957 15.2296 8.6717 15.3704 8.75642C15.5111 8.84113 15.6675 8.8967 15.8302 8.91984C15.9928 8.94297 16.1585 8.93318 16.3173 8.89107C16.4761 8.84895 16.6248 8.77537 16.7547 8.67467C21.1321 5.32024 26.4931 3.50232 32.008 3.50232C37.5229 3.50232 42.8839 5.32024 47.2613 8.67467C47.8 9.10134 48.5947 8.984 49.0027 8.42667C49.1997 8.16009 49.284 7.8268 49.2377 7.4986C49.1913 7.1704 49.0178 6.87355 48.7547 6.672C43.948 2.99128 38.0621 0.997738 32.008 1H32.0053ZM32.0853 9.29334C26.498 9.30285 21.0113 10.7816 16.176 13.5813C10.8968 16.6641 6.46985 21.015 3.296 26.24C2.488 27.6693 4.48 28.9627 5.42933 27.5653C8.37696 22.6903 12.4965 18.6294 17.4133 15.752C21.8714 13.1724 26.9294 11.8105 32.08 11.8027C37.16 11.8107 42.16 13.1547 46.5653 15.7013C51.1253 18.3067 55.2587 22.2533 58.5733 27.568C58.6844 27.7607 58.8459 27.9196 59.0403 28.0277C59.2348 28.1357 59.455 28.1888 59.6773 28.1813C59.8993 28.1763 60.1158 28.1112 60.3036 27.9929C60.4915 27.8745 60.6437 27.7074 60.744 27.5093C60.8497 27.3131 60.9001 27.0919 60.8898 26.8692C60.8795 26.6466 60.8088 26.4309 60.6853 26.2453V26.24C57.192 20.5867 52.7333 16.3467 47.7947 13.52C43.0179 10.757 37.5983 9.29931 32.08 9.29334H32.0853ZM32 17.4373C28.6035 17.3996 25.2357 18.0623 22.1067 19.384C17.7253 21.2667 14.1867 24.3973 11.2693 28.2987C8.34667 32.192 6.016 36.8667 3.98933 41.904C3.86794 42.2133 3.87319 42.5579 4.00394 42.8633C4.13469 43.1687 4.38043 43.4104 4.688 43.536C5.688 43.8933 6.16 43.152 6.288 42.824C8.91467 36.264 12.048 30.4933 16.1467 26.4507C18.1317 24.4354 20.4855 22.8204 23.08 21.6933C25.9003 20.5169 28.9311 19.9289 31.9867 19.9653C34.6821 19.9378 37.3646 20.3402 39.9333 21.1573C43.4515 22.2662 46.5851 24.346 48.9733 27.1573C51.368 29.976 53.1253 33.6187 54.0853 38.064C54.544 40.2773 54.7653 42.5307 54.7653 44.7947C54.7787 46.4386 54.6268 48.0798 54.312 49.6933C54.2435 50.0153 54.3044 50.3512 54.4815 50.6287C54.6587 50.9061 54.9378 51.1027 55.2587 51.176C55.5831 51.2442 55.9214 51.1817 56.2 51.0019C56.4787 50.8222 56.6751 50.5398 56.7467 50.216C57.104 48.4293 57.28 46.6133 57.2533 44.7947C57.2533 42.352 57.0133 39.9227 56.528 37.536C55.9001 34.543 54.8145 31.6648 53.3093 29.0027C51.2484 25.3677 48.2112 22.3822 44.5413 20.384C40.92 18.4347 36.6747 17.44 32.008 17.44L32 17.4373ZM32.272 25.64C30.2751 25.6108 28.2851 25.8805 26.368 26.44C24.9918 26.8623 23.688 27.4918 22.5013 28.3067C20.5878 29.6638 18.9671 31.3924 17.736 33.3893C15.864 36.304 14.5627 39.6027 13.208 42.6667C12.5792 44.1479 11.8733 45.5952 11.0933 47.0027C10.3733 48.2773 9.50933 49.456 8.52267 50.5067C7.408 51.7307 9.09867 53.424 10.296 52.272V52.2773C12.3307 50.1973 13.7093 47.6 14.9627 44.8747C15.8907 42.848 16.7333 40.7653 17.648 38.8027C18.3067 37.3547 19.0613 35.9627 19.904 34.624C21.0686 32.7382 22.6529 31.1466 24.5333 29.9733C26.448 28.84 28.808 28.1467 32.0053 28.1467C34.3648 28.0986 36.7041 28.5893 38.8453 29.5813C40.2267 30.248 41.4747 31.1547 42.5387 32.256C44.1387 33.944 45.3387 35.976 46.064 38.192C46.8552 40.5792 47.2498 43.0799 47.232 45.5947C47.2267 48.208 46.8453 50.808 46.0987 53.3147C45.3965 55.7511 44.307 58.0588 42.872 60.1493C42.6883 60.4233 42.6195 60.7584 42.6803 61.0825C42.7412 61.4067 42.9268 61.694 43.1973 61.8827C43.465 62.0711 43.7964 62.146 44.1191 62.091C44.4418 62.0361 44.7297 61.8557 44.92 61.5893C46.5059 59.2747 47.7122 56.7216 48.4933 54.0267C49.2933 51.296 49.7147 48.4533 49.72 45.608C49.7298 43.1244 49.3841 40.6523 48.6933 38.2667C47.6533 34.7547 45.8027 31.6 43.0187 29.2987C41.574 28.1148 39.9258 27.2039 38.1547 26.6107C36.2548 25.9965 34.2738 25.6694 32.2773 25.64H32.272ZM32.0213 33.8613C30.0853 33.888 28.2213 34.5813 26.7253 35.808C25.1853 37.0287 24.0435 38.6802 23.4453 40.552C23.136 41.5067 22.952 42.5493 22.6907 43.7227C22.2673 45.8061 21.5659 47.8233 20.6053 49.72C19.4373 51.9547 17.6453 54.4053 14.6853 56.9733C14.4371 57.1906 14.2837 57.4963 14.2578 57.8251C14.2319 58.154 14.3356 58.4799 14.5467 58.7333C14.9947 59.2613 15.7867 59.32 16.3067 58.8667C18.1733 57.2667 19.8267 55.44 21.2293 53.432C22.7608 51.2394 23.9028 48.7992 24.6053 46.2187C24.8987 45.1707 25.104 44.208 25.2827 43.3787C25.4189 42.6804 25.5879 41.989 25.7893 41.3067C26.2373 39.9067 27.096 38.672 28.248 37.76C29.3026 36.8841 30.624 36.3932 31.9947 36.368C32.8213 36.3813 33.64 36.5733 34.3893 36.936C35.6107 37.5493 36.6293 38.456 37.376 39.592C38.128 40.696 38.5493 41.992 38.576 43.3307C38.6293 46.2373 38.2827 49.144 37.5173 51.9547C36.3539 56.0804 34.1469 59.8367 31.1093 62.8613C30.6293 63.3573 30.6293 64.1413 31.1147 64.6347C31.84 65.28 32.624 64.936 32.88 64.6213C36.2167 61.2955 38.6428 57.1679 39.9253 52.6347C40.7521 49.6032 41.1453 46.4698 41.0933 43.328C41.0835 42.1093 40.8258 40.9053 40.336 39.7893C39.6178 38.1277 38.4723 36.6859 37.016 35.6107C35.5854 34.5004 33.8321 33.8863 32.0213 33.8613ZM31.9813 42.0747C31.8174 42.0754 31.6553 42.1083 31.5041 42.1717C31.353 42.2351 31.2158 42.3276 31.1004 42.444C30.985 42.5604 30.8937 42.6983 30.8316 42.85C30.7696 43.0017 30.738 43.1641 30.7387 43.328H30.744C30.7613 45.102 30.5425 46.8704 30.0933 48.5867C29.4587 50.8873 28.4076 53.052 26.992 54.9733C25.3653 57.1573 23.6053 59.2133 21.6747 61.128C21.4456 61.3699 21.3213 61.6925 21.3287 62.0256C21.3362 62.3587 21.4749 62.6753 21.7147 62.9067C21.8333 63.0199 21.9732 63.1086 22.1261 63.1677C22.2791 63.2268 22.4422 63.2552 22.6062 63.2512C22.7701 63.2473 22.9317 63.211 23.0816 63.1446C23.2316 63.0781 23.3669 62.9828 23.48 62.864C26.28 59.9413 28.7013 57.264 30.472 54.192C31.3699 52.631 32.0517 50.9552 32.4987 49.2107C32.9947 47.2907 33.2507 45.3147 33.2293 43.3307C33.2293 42.9992 33.098 42.6812 32.8641 42.4463C32.6302 42.2114 32.3128 42.0788 31.9813 42.0773V42.0747Z" fill="#4FD1C5" stroke="#4FD1C5" stroke-width="2" stroke-linejoin="round"/>
</svg>
